<svg width="180" height="56" viewBox="0 0 180 56" fill="none" xmlns="http://www.w3.org/2000/svg" xmlns:c2pa="http://c2pa.org/manifest"><metadata><c2pa:manifest>AAAWgmp1bWIAAAAeanVtZGMycGEAEQAQgAAAqgA4m3EDYzJwYQAAABZcanVtYgAAAEdqdW1kYzJtYQARABCAAACqADibcQN1cm46YzJwYTplODM3NzVkMS0xNmMwLTQ0ZjYtYTM0NS1jZTNkNmNhNjc4OGUAAAADl2p1bWIAAAApanVtZGMyYXMAEQAQgAAAqgA4m3EDYzJwYS5hc3NlcnRpb25zAAAAALxqdW1iAAAARGp1bWRjYm9yABEAEIAAAKoAOJtxE2MycGEuaW5ncmVkaWVudC52MwAAAAAYYzJzaGhmqINKIBMdn/h5tiTS51kAAABwY2JvcqNpZGM6Zm9ybWF0bWltYWdlL3N2Zyt4bWxqaW5zdGFuY2VJRHgseG1wOmlpZDoxMTQ5NjkwMC0xYTlkLTQ5ZmMtYmZkZS1iMmYxYzY1YTA4NDlscmVsYXRpb25zaGlwaHBhcmVudE9mAAAB4mp1bWIAAABBanVtZGNib3IAEQAQgAAAqgA4m3ETYzJwYS5hY3Rpb25zLnYyAAAAABhjMnNon8u3MC6cLvJQSZ9sgKFUkgAAAZljYm9yomdhY3Rpb25zgqJmYWN0aW9ua2MycGEub3BlbmVkanBhcmFtZXRlcnOha2luZ3JlZGllbnRzgaJjdXJseC1zZWxmI2p1bWJmPWMycGEuYXNzZXJ0aW9ucy9jMnBhLmluZ3JlZGllbnQudjNkaGFzaFggJVI3o+rG5zfJl2PcHp2p7sa6bbQ+SzFXU3LlfU87om6kZmFjdGlvbngdY29tLmFudGhyb3BpYy5jbGF1ZGUucHJvdmlkZWRqcGFyYW1ldGVyc6F4H2NvbS5hbnRocm9waWMub3JpZ2luLWNvbmZpZGVuY2VndW5rbm93bmtkZXNjcmlwdGlvbnhmQ2xhdWRlIHByb3ZpZGVkIHRoaXMgZmlsZSBhdCB0aGUgcmVxdWVzdCBvZiBhIHVzZXIgYW5kIG1heSBoYXZlIGNyZWF0ZWQgb3IgbW9kaWZpZWQgdGhlIGZpbGUgY29udGVudHMubXNvZnR3YXJlQWdlbnShZG5hbWVmQ2xhdWRlcmFsbEFjdGlvbnNJbmNsdWRlZPUAAADIanVtYgAAAEBqdW1kY2JvcgARABCAAACqADibcRNjMnBhLmhhc2guZGF0YQAAAAAYYzJzaHtKJuqBbRC8DGjlJG6mGzUAAACAY2JvcqVjYWxnZnNoYTI1NmNwYWRNAAAAAAAAAAAAAAAAAGRoYXNoWCBY30YAAsm8PtCgLuzQEbuBiKyrjMvnTsH6rYLrK8JImGRuYW1lbmp1bWJmIG1hbmlmZXN0amV4Y2x1c2lvbnOBomVzdGFydBigZmxlbmd0aBkeBAAAAj5qdW1iAAAAJ2p1bWRjMmNsABEAEIAAAKoAOJtxA2MycGEuY2xhaW0udjIAAAACD2Nib3KlY2FsZ2ZzaGEyNTZpc2lnbmF0dXJleE1zZWxmI2p1bWJmPS9jMnBhL3VybjpjMnBhOmU4Mzc3NWQxLTE2YzAtNDRmNi1hMzQ1LWNlM2Q2Y2E2Nzg4ZS9jMnBhLnNpZ25hdHVyZWppbnN0YW5jZUlEeCx4bXA6aWlkOmMzNDI5MDRlLWY4NWUtNGY1YS04OWQ1LTNmOGE0NzY3MzY0NnJjcmVhdGVkX2Fzc2VydGlvbnODomN1cmx4LXNlbGYjanVtYmY9YzJwYS5hc3NlcnRpb25zL2MycGEuaW5ncmVkaWVudC52M2RoYXNoWCAlUjej6sbnN8mXY9wenanuxrpttD5LMVdTcuV9TzuibqJjdXJseCpzZWxmI2p1bWJmPWMycGEuYXNzZXJ0aW9ucy9jMnBhLmFjdGlvbnMudjJkaGFzaFggNW3SfZUUuoDlmbm+790NL1LfD3xr8ynXjzhh9Ufhl7OiY3VybHgpc2VsZiNqdW1iZj1jMnBhLmFzc2VydGlvbnMvYzJwYS5oYXNoLmRhdGFkaGFzaFggIJonjNwKha20azLK1hHinkOUWyRrpkMoFmYbyJ9Wugh0Y2xhaW1fZ2VuZXJhdG9yX2luZm+jZG5hbWVvQW50aHJvcGljIEZpbGVzZ3ZlcnNpb25lMS4wLjBrc3BlY1ZlcnNpb25lMi40LjAAABA4anVtYgAAAChqdW1kYzJjcwARABCAAACqADibcQNjMnBhLnNpZ25hdHVyZQAAABAIY2JvctKEWQISogEmGCFZAgowggIGMIIBjaADAgECAhRA5aAK7sI50L64g/oGQgU9Z1UTADAKBggqhkjOPQQDAzBJMRcwFQYDVQQKEw5BbnRocm9waWMsIFBCQzEuMCwGA1UEAxMlQW50aHJvcGljIENvbnRlbnQgQ3JlZGVudGlhbHMgUm9vdCBDQTAeFw0yNjA4MDcxODQzNTZaFw0yODA4MDYxOTQzNTZaMEQxFzAVBgNVBAoTDkFudGhyb3BpYywgUEJDMSkwJwYDVQQDEyBBbnRocm9waWMgQ2xhdWRlIENvbnRlbnQgU2lnbmluZzBZMBMGByqGSM49AgEGCCqGSM49AwEHA0IABJh6CmvLUBgFFNU0vUKlOVtE6djd17L5SuwX0LemFisBM3dkd/3cyjxFA3Qo5S46fX0/ihY0VZ7mfb9KF703t5OjWDBWMA4GA1UdDwEB/wQEAwIHgDAVBgNVHSUEDjAMBgorBgEEAYPoXgIBMAwGA1UdEwEB/wQCMAAwHwYDVR0jBBgwFoAUzlHiBIFOZFsj+OPEz5o+nMHXXMIwCgYIKoZIzj0EAwMDZwAwZAIwMXMdFJ4BetLLVY7ORuE9noqbbAZOZn/aArXyTwFAZfKrPzxF2vPoJNf1+UCdg1XGAjBwX1zd9WGqYkqmL5SFqw1QySjr1zJfpJM9+1rdDwSPLMOPOjKuiXjoU/pUUeG9RwmhY3BhZFkNngAAAAAAAAAAAAAAAAAAAAAAAAAAAAAAAAAAAAAAAAAAAAAAAAAAAAAAAAAAAAAAAAAAAAAAAAAAAAAAAAAAAAAAAAAAAAAAAAAAAAAAAAAAAAAAAAAAAAAAAAAAAAAAAAAAAAAAAAAAAAAAAAAAAAAAAAAAAAAAAAAAAAAAAAAAAAAAAAAAAAAAAAAAAAAAAAAAAAAAAAAAAAAAAAAAAAAAAAAAAAAAAAAAAAAAAAAAAAAAAAAAAAAAAAAAAAAAAAAAAAAAAAAAAAAAAAAAAAAAAAAAAAAAAAAAAAAAAAAAAAAAAAAAAAAAAAAAAAAAAAAAAAAAAAAAAAAAAAAAAAAAAAAAAAAAAAAAAAAAAAAAAAAAAAAAAAAAAAAAAAAAAAAAAAAAAAAAAAAAAAAAAAAAAAAAAAAAAAAAAAAAAAAAAAAAAAAAAAAAAAAAAAAAAAAAAAAAAAAAAAAAAAAAAAAAAAAAAAAAAAAAAAAAAAAAAAAAAAAAAAAAAAAAAAAAAAAAAAAAAAAAAAAAAAAAAAAAAAAAAAAAAAAAAAAAAAAAAAAAAAAAAAAAAAAAAAAAAAAAAAAAAAAAAAAAAAAAAAAAAAAAAAAAAAAAAAAAAAAAAAAAAAAAAAAAAAAAAAAAAAAAAAAAAAAAAAAAAAAAAAAAAAAAAAAAAAAAAAAAAAAAAAAAAAAAAAAAAAAAAAAAAAAAAAAAAAAAAAAAAAAAAAAAAAAAAAAAAAAAAAAAAAAAAAAAAAAAAAAAAAAAAAAAAAAAAAAAAAAAAAAAAAAAAAAAAAAAAAAAAAAAAAAAAAAAAAAAAAAAAAAAAAAAAAAAAAAAAAAAAAAAAAAAAAAAAAAAAAAAAAAAAAAAAAAAAAAAAAAAAAAAAAAAAAAAAAAAAAAAAAAAAAAAAAAAAAAAAAAAAAAAAAAAAAAAAAAAAAAAAAAAAAAAAAAAAAAAAAAAAAAAAAAAAAAAAAAAAAAAAAAAAAAAAAAAAAAAAAAAAAAAAAAAAAAAAAAAAAAAAAAAAAAAAAAAAAAAAAAAAAAAAAAAAAAAAAAAAAAAAAAAAAAAAAAAAAAAAAAAAAAAAAAAAAAAAAAAAAAAAAAAAAAAAAAAAAAAAAAAAAAAAAAAAAAAAAAAAAAAAAAAAAAAAAAAAAAAAAAAAAAAAAAAAAAAAAAAAAAAAAAAAAAAAAAAAAAAAAAAAAAAAAAAAAAAAAAAAAAAAAAAAAAAAAAAAAAAAAAAAAAAAAAAAAAAAAAAAAAAAAAAAAAAAAAAAAAAAAAAAAAAAAAAAAAAAAAAAAAAAAAAAAAAAAAAAAAAAAAAAAAAAAAAAAAAAAAAAAAAAAAAAAAAAAAAAAAAAAAAAAAAAAAAAAAAAAAAAAAAAAAAAAAAAAAAAAAAAAAAAAAAAAAAAAAAAAAAAAAAAAAAAAAAAAAAAAAAAAAAAAAAAAAAAAAAAAAAAAAAAAAAAAAAAAAAAAAAAAAAAAAAAAAAAAAAAAAAAAAAAAAAAAAAAAAAAAAAAAAAAAAAAAAAAAAAAAAAAAAAAAAAAAAAAAAAAAAAAAAAAAAAAAAAAAAAAAAAAAAAAAAAAAAAAAAAAAAAAAAAAAAAAAAAAAAAAAAAAAAAAAAAAAAAAAAAAAAAAAAAAAAAAAAAAAAAAAAAAAAAAAAAAAAAAAAAAAAAAAAAAAAAAAAAAAAAAAAAAAAAAAAAAAAAAAAAAAAAAAAAAAAAAAAAAAAAAAAAAAAAAAAAAAAAAAAAAAAAAAAAAAAAAAAAAAAAAAAAAAAAAAAAAAAAAAAAAAAAAAAAAAAAAAAAAAAAAAAAAAAAAAAAAAAAAAAAAAAAAAAAAAAAAAAAAAAAAAAAAAAAAAAAAAAAAAAAAAAAAAAAAAAAAAAAAAAAAAAAAAAAAAAAAAAAAAAAAAAAAAAAAAAAAAAAAAAAAAAAAAAAAAAAAAAAAAAAAAAAAAAAAAAAAAAAAAAAAAAAAAAAAAAAAAAAAAAAAAAAAAAAAAAAAAAAAAAAAAAAAAAAAAAAAAAAAAAAAAAAAAAAAAAAAAAAAAAAAAAAAAAAAAAAAAAAAAAAAAAAAAAAAAAAAAAAAAAAAAAAAAAAAAAAAAAAAAAAAAAAAAAAAAAAAAAAAAAAAAAAAAAAAAAAAAAAAAAAAAAAAAAAAAAAAAAAAAAAAAAAAAAAAAAAAAAAAAAAAAAAAAAAAAAAAAAAAAAAAAAAAAAAAAAAAAAAAAAAAAAAAAAAAAAAAAAAAAAAAAAAAAAAAAAAAAAAAAAAAAAAAAAAAAAAAAAAAAAAAAAAAAAAAAAAAAAAAAAAAAAAAAAAAAAAAAAAAAAAAAAAAAAAAAAAAAAAAAAAAAAAAAAAAAAAAAAAAAAAAAAAAAAAAAAAAAAAAAAAAAAAAAAAAAAAAAAAAAAAAAAAAAAAAAAAAAAAAAAAAAAAAAAAAAAAAAAAAAAAAAAAAAAAAAAAAAAAAAAAAAAAAAAAAAAAAAAAAAAAAAAAAAAAAAAAAAAAAAAAAAAAAAAAAAAAAAAAAAAAAAAAAAAAAAAAAAAAAAAAAAAAAAAAAAAAAAAAAAAAAAAAAAAAAAAAAAAAAAAAAAAAAAAAAAAAAAAAAAAAAAAAAAAAAAAAAAAAAAAAAAAAAAAAAAAAAAAAAAAAAAAAAAAAAAAAAAAAAAAAAAAAAAAAAAAAAAAAAAAAAAAAAAAAAAAAAAAAAAAAAAAAAAAAAAAAAAAAAAAAAAAAAAAAAAAAAAAAAAAAAAAAAAAAAAAAAAAAAAAAAAAAAAAAAAAAAAAAAAAAAAAAAAAAAAAAAAAAAAAAAAAAAAAAAAAAAAAAAAAAAAAAAAAAAAAAAAAAAAAAAAAAAAAAAAAAAAAAAAAAAAAAAAAAAAAAAAAAAAAAAAAAAAAAAAAAAAAAAAAAAAAAAAAAAAAAAAAAAAAAAAAAAAAAAAAAAAAAAAAAAAAAAAAAAAAAAAAAAAAAAAAAAAAAAAAAAAAAAAAAAAAAAAAAAAAAAAAAAAAAAAAAAAAAAAAAAAAAAAAAAAAAAAAAAAAAAAAAAAAAAAAAAAAAAAAAAAAAAAAAAAAAAAAAAAAAAAAAAAAAAAAAAAAAAAAAAAAAAAAAAAAAAAAAAAAAAAAAAAAAAAAAAAAAAAAAAAAAAAAAAAAAAAAAAAAAAAAAAAAAAAAAAAAAAAAAAAAAAAAAAAAAAAAAAAAAAAAAAAAAAAAAAAAAAAAAAAAAAAAAAAAAAAAAAAAAAAAAAAAAAAAAAAAAAAAAAAAAAAAAAAAAAAAAAAAAAAAAAAAAAAAAAAAAAAAAAAAAAAAAAAAAAAAAAAAAAAAAAAAAAAAAAAAAAAAAAAAAAAAAAAAAAAAAAAAAAAAAAAAAAAAAAAAAAAAAAAAAAAAAAAAAAAAAAAAAAAAAAAAAAAAAAAAAAAAAAAAAAAAAAAAAAAAAAAAAAAAAAAAAAAAAAAAAAAAAAAAAAAAAAAAAAAAAAAAAAAAAAAAAAAAAAAAAAAAAAAAAAAAAAAAAAAAAAAAAAAAAAAAAAAAAAAAAAAAAAAAAAAAAAAAAAAAAAAAAAAAAAAAAAAAAAAAAAAAAAAAAAAAAAAAAAAAAAAAAAAAAAAAAAAAAAAAAAAAAAAAAAAAAAAAAAAAAAAAAAAAAAAAAAAAAAAAAAAAAAAAAAAAAAAAAAAAAAAAAAAAAAAAAAAAAAAAAAAAAAAAAAAAAAAAAAAAAAAAAAAAAAAAAAAAAAAAAAAAAAAAAAAAAAAAAAAAAAAAAAAAAAAAAAAAAAAAAAAAAAAAAAAAAAAAAAAAAAAAAAAAAAAAAAAAAAAAAAAAAAAAAAAAAAAAAAAAAAAAAAAAAAAAAAAAAAAAAAAAAAAAAAAAAAAAAAAAAAAAAAAAAAAAAAAAAAAAAAAAAAAAAAAAAAAAAAAAAAAAAAAAAAAAAAAAAAAAAAAAAAAAAAAAAAAAAAAAAAAAAAAAAAAAAAAAAAAAAAAAAAAAAAAAAAAAAAAAAAAAAAAAAAAAAAAAAAAAAAAAAAAAAAAAAAAAAAAAAAAAAAAAAAAAAAAAAAAAAAAAAAAAAAAAAAAAAAAAAAAAAAAAAAAAAAAAAAAAAAAAAAAAAAAAAAAAAAAAAAAAAAAAAAAAAAAAAAAAAAAAAAAAAAAAAAAAAAAAAAAAAAAAAAAAAAAAAAAAAAAAAAAAAAAAAAAAAAAAAAAAAAAAAAAAAAAAAAAAAAAAAAAAAAAAAAAAAAAAAAAAAAAAAAAAAAAAAAAAAAAAAAAAAAAAAAAAAAAAAAAAAAAAAAAAAAAAAAAAAAAAAAAAAAAAAAAAAAAAAAAAAAAAAAAAAAAAAAAAAAAAAAAAAAAAAAAAAAAAAAAAAAAAAAAAAAAAAAAAAAAAAAAAAAAAAAAAAAAAAAAAAAAAAAAAAAAAAAAAAAAAAAAAAAAAAAAAAAAAAAAAAAAAAAAAAAAAAAAAAAAAAAAAAAAAAAAAAAAAAAAAAAAAAAAAAAAAAAAAAAAAAAAAAAAAAAAAAAAAAAAAAAAAAAAAAAAAAAAAAAAAAAAAAAAAAAAAAAAAAAAAAAAAAAAAAAAAAAAAAAAAAAAAAAAAAAAAAAAAAAAAAAAAAAAAAAAAAAAAAAAAAAAAAAAAAAAAAAAAAAAAAAAAAAPZYQDXUo7qsgYq7p5BRuTadlB/ThCJQPNDQF9jc+eGvGoJ3alUMkpL8HXzFN7DSi1bXHSpBM0ChAaUSsXk8woeECvc=</c2pa:manifest></metadata>
<g clip-path="url(#clip0_7351_23555)">
<g clip-path="url(#clip1_7351_23555)">
<path d="M5.3125 14.6329H24.6875C27.625 14.6329 30 17.0688 30 20.0816V39.1842C30 42.197 27.625 44.6329 24.6875 44.6329H5.3125C2.375 44.6329 0 42.197 0 39.1842V20.0816C0 17.0688 2.375 14.6329 5.3125 14.6329Z" fill="#D97757"></path>
<path d="M14.6753 19.4469C15.7165 19.4119 16.7567 19.5381 17.7593 19.8209C20.3605 20.5616 22.5613 22.3043 23.8785 24.6666C24.766 26.2532 25.2153 28.0481 25.1792 29.8658C25.1676 30.5262 25.1049 31.114 24.9273 31.7447C24.4101 33.5808 23.0888 34.504 21.233 34.7076C20.3894 34.8001 19.6902 34.7721 18.8384 34.7428C18.3292 34.7252 17.2376 34.6832 16.8082 34.9342C16.1454 35.3217 16.257 36.5547 16.2183 37.2183C16.1956 37.6065 16.1899 37.9444 16.0865 38.3219C15.9323 38.8842 15.6677 39.2732 15.1626 39.565C14.3504 39.9871 13.3351 39.8195 12.4869 39.6012C10.8475 39.1785 9.3393 38.3534 8.09917 37.2008C6.10321 35.3512 4.92513 32.7834 4.82378 30.0641C4.72006 27.3274 5.7142 24.6623 7.5855 22.6627C9.42477 20.6874 11.9776 19.5298 14.6753 19.4469ZM14.6392 21.0836C12.3362 21.2135 10.2255 22.1569 8.67925 23.8883C7.14007 25.5898 6.34375 27.8355 6.46636 30.1266C6.58083 32.4334 7.62041 34.597 9.35015 36.1275C10.3887 37.0512 11.6372 37.7071 12.9869 38.0387C13.2417 38.1011 14.1709 38.3166 14.4175 38.0924C14.5331 37.9873 14.5625 37.5358 14.5748 37.357C14.605 36.1244 14.5734 34.7704 15.5416 33.8531C15.817 33.592 16.1423 33.4066 16.5035 33.2916C18.3204 32.7136 21.7048 33.8228 22.9371 32.1812C23.4095 31.5515 23.5198 30.6784 23.5435 29.9146C23.6088 27.635 22.7671 25.4227 21.2037 23.7623C19.6625 22.1215 17.5345 21.1569 15.2847 21.0797C15.1005 21.0744 14.8229 21.0706 14.6392 21.0836ZM9.75737 29.4957C10.5571 29.3972 11.2851 29.9672 11.3814 30.7672C11.4775 31.5671 10.9052 32.2933 10.105 32.3873C9.30802 32.4808 8.58571 31.9116 8.48979 31.1148C8.39392 30.318 8.96085 29.5939 9.75737 29.4957ZM19.815 26.7691C20.6145 26.6774 21.3372 27.2519 21.4283 28.0514C21.519 28.8511 20.9429 29.5729 20.1431 29.6627C19.3449 29.7521 18.6254 29.1785 18.5347 28.3805C18.4441 27.5822 19.0169 26.8608 19.815 26.7691ZM11.1402 24.4713C11.9387 24.3839 12.6571 24.9599 12.7457 25.7584C12.834 26.5569 12.2589 27.2764 11.4605 27.3658C10.6607 27.4553 9.93977 26.8786 9.85112 26.0787C9.76257 25.2789 10.3402 24.559 11.1402 24.4713ZM16.1119 23.1158C16.9082 23.0002 17.6476 23.5526 17.7623 24.3492C17.8768 25.1456 17.3234 25.8838 16.5269 25.9976C15.7317 26.1111 14.9941 25.5593 14.8794 24.7642C14.7649 23.9691 15.3169 23.2315 16.1119 23.1158Z" fill="#FEFEFE"></path>
</g>
<path d="M54.0633 27.1784H51.3197C51.2414 26.7285 51.0971 26.3299 50.8869 25.9827C50.6766 25.6306 50.4149 25.3322 50.1019 25.0877C49.7889 24.8432 49.4319 24.6598 49.0309 24.5375C48.6347 24.4104 48.2068 24.3468 47.7471 24.3468C46.9304 24.3468 46.2066 24.5522 45.5757 24.963C44.9448 25.3689 44.4509 25.9656 44.0939 26.7529C43.7368 27.5354 43.5583 28.4915 43.5583 29.6213C43.5583 30.7705 43.7368 31.7389 44.0939 32.5263C44.4558 33.3088 44.9497 33.9005 45.5757 34.3015C46.2066 34.6977 46.9279 34.8957 47.7398 34.8957C48.1897 34.8957 48.6103 34.8371 49.0015 34.7197C49.3977 34.5974 49.7522 34.4189 50.0652 34.1842C50.3831 33.9494 50.6497 33.6609 50.8648 33.3185C51.0849 32.9762 51.2365 32.5849 51.3197 32.1448L54.0633 32.1595C53.9606 32.8735 53.7381 33.5435 53.3957 34.1695C53.0583 34.7955 52.6157 35.3481 52.0679 35.8274C51.5202 36.3018 50.8795 36.6735 50.1459 36.9424C49.4123 37.2065 48.5981 37.3386 47.7031 37.3386C46.3826 37.3386 45.204 37.0329 44.1672 36.4216C43.1304 35.8103 42.3137 34.9275 41.717 33.7734C41.1204 32.6192 40.8221 31.2351 40.8221 29.6213C40.8221 28.0025 41.1228 26.6185 41.7244 25.4692C42.3259 24.315 43.1451 23.4322 44.1819 22.8209C45.2187 22.2096 46.3924 21.9039 47.7031 21.9039C48.5394 21.9039 49.317 22.0213 50.0359 22.2561C50.7548 22.4908 51.3955 22.8356 51.9579 23.2904C52.5203 23.7403 52.9825 24.293 53.3444 24.9483C53.7112 25.5988 53.9508 26.3421 54.0633 27.1784ZM58.6807 22.1093V37.1332H56.0251V22.1093H58.6807ZM64.2408 37.3606C63.5267 37.3606 62.8836 37.2334 62.3114 36.9791C61.7441 36.7199 61.2942 36.3385 60.9616 35.8347C60.634 35.331 60.4701 34.7099 60.4701 33.9714C60.4701 33.3357 60.5875 32.8099 60.8222 32.3942C61.057 31.9785 61.3773 31.646 61.7832 31.3965C62.1892 31.1471 62.6464 30.9588 63.155 30.8317C63.6686 30.6996 64.1992 30.6043 64.7469 30.5456C65.4072 30.4771 65.9427 30.416 66.3535 30.3622C66.7643 30.3035 67.0626 30.2155 67.2485 30.0981C67.4392 29.9758 67.5346 29.7875 67.5346 29.5332V29.4892C67.5346 28.9366 67.3707 28.5087 67.0431 28.2054C66.7154 27.9022 66.2434 27.7506 65.6272 27.7506C64.9768 27.7506 64.4608 27.8924 64.0794 28.1761C63.7028 28.4598 63.4485 28.7948 63.3164 29.1811L60.8369 28.829C61.0325 28.1443 61.3553 27.5721 61.8052 27.1124C62.2552 26.6478 62.8054 26.3006 63.4558 26.0707C64.1063 25.836 64.8252 25.7186 65.6126 25.7186C66.1554 25.7186 66.6958 25.7822 67.2338 25.9093C67.7717 26.0365 68.2632 26.2468 68.7083 26.5402C69.1533 26.8287 69.5103 27.2224 69.7793 27.7213C70.0532 28.2201 70.1901 28.8437 70.1901 29.5919V37.1332H67.6373V35.5853H67.5492C67.3878 35.8983 67.1604 36.1917 66.867 36.4656C66.5784 36.7346 66.2141 36.9522 65.7739 37.1185C65.3387 37.2799 64.8276 37.3606 64.2408 37.3606ZM64.9303 35.4093C65.4634 35.4093 65.9256 35.3041 66.3168 35.0938C66.708 34.8786 67.0088 34.595 67.2191 34.2429C67.4343 33.8907 67.5419 33.5068 67.5419 33.0911V31.7633C67.4587 31.8318 67.3169 31.8954 67.1164 31.9541C66.9208 32.0128 66.7007 32.0641 66.4562 32.1081C66.2117 32.1521 65.9696 32.1913 65.7299 32.2255C65.4903 32.2597 65.2824 32.2891 65.1064 32.3135C64.7102 32.3673 64.3557 32.4553 64.0427 32.5776C63.7297 32.6999 63.4827 32.871 63.3018 33.0911C63.1208 33.3063 63.0303 33.5851 63.0303 33.9274C63.0303 34.4165 63.2088 34.7857 63.5659 35.0351C63.9229 35.2845 64.3777 35.4093 64.9303 35.4093ZM79.629 32.3942V25.8653H82.2846V37.1332H79.7097V35.1305H79.5924C79.338 35.7614 78.9199 36.2773 78.3379 36.6784C77.7608 37.0794 77.0493 37.2799 76.2032 37.2799C75.4647 37.2799 74.8118 37.1161 74.2445 36.7884C73.6821 36.4558 73.2419 35.9741 72.9241 35.3432C72.6062 34.7075 72.4472 33.9396 72.4472 33.0398V25.8653H75.1028V32.629C75.1028 33.343 75.2984 33.9103 75.6897 34.3309C76.0809 34.7515 76.5944 34.9618 77.2302 34.9618C77.6215 34.9618 78.0005 34.8664 78.3673 34.6757C78.7341 34.4849 79.0348 34.2013 79.2696 33.8247C79.5092 33.4432 79.629 32.9664 79.629 32.3942ZM88.7837 37.3312C87.8985 37.3312 87.1062 37.1038 86.4068 36.649C85.7075 36.1942 85.1549 35.534 84.7489 34.6683C84.343 33.8027 84.1401 32.7512 84.1401 31.5139C84.1401 30.2619 84.3455 29.2056 84.7563 28.3448C85.172 27.4792 85.7319 26.8263 86.4362 26.3861C87.1404 25.9411 87.9254 25.7186 88.791 25.7186C89.4512 25.7186 89.9941 25.8311 90.4196 26.056C90.845 26.2761 91.1825 26.5426 91.4319 26.8556C91.6813 27.1637 91.8745 27.4547 92.0114 27.7286H92.1215V22.1093H94.7844V37.1332H92.1728V35.3579H92.0114C91.8745 35.6318 91.6764 35.9228 91.4172 36.2309C91.158 36.5341 90.8157 36.7933 90.3902 37.0085C89.9647 37.2237 89.4292 37.3312 88.7837 37.3312ZM89.5246 35.1525C90.087 35.1525 90.5663 35.0009 90.9624 34.6977C91.3586 34.3896 91.6593 33.9616 91.8647 33.4139C92.0701 32.8662 92.1728 32.2279 92.1728 31.4992C92.1728 30.7705 92.0701 30.1372 91.8647 29.5993C91.6642 29.0613 91.3659 28.6431 90.9698 28.3448C90.5785 28.0465 90.0968 27.8973 89.5246 27.8973C88.9328 27.8973 88.4389 28.0514 88.0427 28.3595C87.6466 28.6676 87.3483 29.0931 87.1478 29.6359C86.9473 30.1788 86.847 30.7999 86.847 31.4992C86.847 32.2035 86.9473 32.8319 87.1478 33.3846C87.3532 33.9323 87.6539 34.3651 88.0501 34.683C88.4511 34.996 88.9426 35.1525 89.5246 35.1525ZM102.189 37.3533C101.06 37.3533 100.084 37.1185 99.2624 36.649C98.4457 36.1746 97.8173 35.5046 97.3771 34.639C96.937 33.7685 96.7169 32.7439 96.7169 31.5653C96.7169 30.4062 96.937 29.389 97.3771 28.5135C97.8222 27.6332 98.4433 26.9486 99.2404 26.4595C100.038 25.9656 100.974 25.7186 102.05 25.7186C102.745 25.7186 103.4 25.8311 104.016 26.056C104.637 26.2761 105.185 26.6185 105.659 27.0831C106.139 27.5477 106.515 28.1394 106.789 28.8583C107.063 29.5724 107.2 30.4233 107.2 31.4112V32.2255H97.964V30.4355H104.654C104.649 29.9269 104.539 29.4745 104.324 29.0784C104.109 28.6774 103.808 28.3619 103.422 28.1321C103.04 27.9022 102.595 27.7873 102.087 27.7873C101.544 27.7873 101.067 27.9193 100.656 28.1834C100.245 28.4426 99.9251 28.785 99.6952 29.2105C99.4703 29.631 99.3553 30.0932 99.3505 30.5969V32.1595C99.3505 32.8148 99.4703 33.3772 99.7099 33.8467C99.9495 34.3113 100.285 34.6683 100.715 34.9177C101.145 35.1623 101.649 35.2845 102.226 35.2845C102.612 35.2845 102.962 35.2307 103.275 35.1232C103.588 35.0107 103.86 34.8468 104.089 34.6317C104.319 34.4165 104.493 34.1499 104.61 33.832L107.09 34.1108C106.933 34.7661 106.635 35.3383 106.195 35.8274C105.76 36.3116 105.202 36.6881 104.522 36.9571C103.842 37.2212 103.065 37.3533 102.189 37.3533ZM118.953 37.1332H113.862V22.1093H119.055C120.547 22.1093 121.828 22.4101 122.899 23.0117C123.975 23.6083 124.802 24.4666 125.379 25.5865C125.956 26.7065 126.245 28.0465 126.245 29.6066C126.245 31.1716 125.954 32.5165 125.372 33.6413C124.794 34.7661 123.961 35.6293 122.87 36.2309C121.784 36.8324 120.479 37.1332 118.953 37.1332ZM116.583 34.7784H118.821C119.867 34.7784 120.74 34.5876 121.44 34.2062C122.139 33.8198 122.665 33.2452 123.017 32.4822C123.369 31.7144 123.545 30.7559 123.545 29.6066C123.545 28.4573 123.369 27.5036 123.017 26.7456C122.665 25.9827 122.144 25.4129 121.454 25.0364C120.77 24.6549 119.919 24.4642 118.901 24.4642H116.583V34.7784ZM133.288 37.3533C132.159 37.3533 131.183 37.1185 130.361 36.649C129.545 36.1746 128.916 35.5046 128.476 34.639C128.036 33.7685 127.816 32.7439 127.816 31.5653C127.816 30.4062 128.036 29.389 128.476 28.5135C128.921 27.6332 129.542 26.9486 130.339 26.4595C131.136 25.9656 132.073 25.7186 133.149 25.7186C133.843 25.7186 134.499 25.8311 135.115 26.056C135.736 26.2761 136.284 26.6185 136.758 27.0831C137.237 27.5477 137.614 28.1394 137.888 28.8583C138.162 29.5724 138.299 30.4233 138.299 31.4112V32.2255H129.063V30.4355H135.753C135.748 29.9269 135.638 29.4745 135.423 29.0784C135.208 28.6774 134.907 28.3619 134.521 28.1321C134.139 27.9022 133.694 27.7873 133.186 27.7873C132.643 27.7873 132.166 27.9193 131.755 28.1834C131.344 28.4426 131.024 28.785 130.794 29.2105C130.569 29.631 130.454 30.0932 130.449 30.5969V32.1595C130.449 32.8148 130.569 33.3772 130.809 33.8467C131.048 34.3113 131.383 34.6683 131.814 34.9177C132.244 35.1623 132.748 35.2845 133.325 35.2845C133.711 35.2845 134.061 35.2307 134.374 35.1232C134.687 35.0107 134.958 34.8468 135.188 34.6317C135.418 34.4165 135.592 34.1499 135.709 33.832L138.189 34.1108C138.032 34.7661 137.734 35.3383 137.294 35.8274C136.858 36.3116 136.301 36.6881 135.621 36.9571C134.941 37.2212 134.164 37.3533 133.288 37.3533ZM149.038 28.8437L146.617 29.1078C146.549 28.8632 146.429 28.6334 146.258 28.4182C146.091 28.203 145.866 28.0294 145.583 27.8973C145.299 27.7653 144.952 27.6993 144.541 27.6993C143.988 27.6993 143.524 27.8191 143.147 28.0587C142.775 28.2984 142.592 28.6089 142.597 28.9904C142.592 29.318 142.712 29.5846 142.956 29.79C143.206 29.9954 143.617 30.1641 144.189 30.2962L146.111 30.707C147.177 30.9368 147.969 31.3012 148.488 31.8C149.011 32.2988 149.275 32.9517 149.28 33.7587C149.275 34.4678 149.067 35.0938 148.656 35.6367C148.25 36.1746 147.686 36.5952 146.962 36.8984C146.238 37.2016 145.407 37.3533 144.468 37.3533C143.088 37.3533 141.978 37.0647 141.137 36.4876C140.296 35.9056 139.795 35.0963 139.633 34.0595L142.223 33.81C142.34 34.3187 142.59 34.7026 142.971 34.9618C143.353 35.221 143.849 35.3506 144.46 35.3506C145.091 35.3506 145.597 35.221 145.979 34.9618C146.365 34.7026 146.558 34.3822 146.558 34.0008C146.558 33.678 146.434 33.4115 146.184 33.2012C145.94 32.9909 145.558 32.8295 145.04 32.717L143.118 32.3135C142.037 32.0886 141.237 31.7095 140.719 31.1765C140.201 30.6385 139.944 29.9587 139.949 29.1371C139.944 28.4426 140.132 27.8411 140.514 27.3325C140.9 26.819 141.435 26.4228 142.12 26.1441C142.81 25.8604 143.604 25.7186 144.504 25.7186C145.825 25.7186 146.864 25.9998 147.622 26.5622C148.385 27.1246 148.857 27.8851 149.038 28.8437ZM151.057 37.1332V25.8653H153.712V37.1332H151.057ZM152.392 24.2661C151.971 24.2661 151.609 24.1267 151.306 23.8479C151.003 23.5643 150.851 23.2244 150.851 22.8283C150.851 22.4272 151.003 22.0873 151.306 21.8086C151.609 21.5249 151.971 21.3831 152.392 21.3831C152.817 21.3831 153.179 21.5249 153.477 21.8086C153.781 22.0873 153.932 22.4272 153.932 22.8283C153.932 23.2244 153.781 23.5643 153.477 23.8479C153.179 24.1267 152.817 24.2661 152.392 24.2661ZM160.93 41.5934C159.976 41.5934 159.157 41.4638 158.473 41.2046C157.788 40.9503 157.238 40.6079 156.822 40.1776C156.406 39.7472 156.118 39.2704 155.956 38.7471L158.348 38.1675C158.455 38.3876 158.612 38.6052 158.817 38.8204C159.023 39.0405 159.299 39.2215 159.646 39.3633C159.998 39.51 160.441 39.5834 160.974 39.5834C161.727 39.5834 162.351 39.4 162.845 39.0332C163.339 38.6713 163.586 38.0746 163.586 37.2432V35.1085H163.454C163.317 35.3824 163.116 35.6636 162.852 35.9521C162.593 36.2406 162.248 36.4827 161.818 36.6784C161.392 36.874 160.857 36.9718 160.211 36.9718C159.346 36.9718 158.561 36.7688 157.856 36.3629C157.157 35.9521 156.599 35.3408 156.184 34.5289C155.773 33.7122 155.568 32.6901 155.568 31.4626C155.568 30.2252 155.773 29.1811 156.184 28.3302C156.599 27.4743 157.159 26.8263 157.864 26.3861C158.568 25.9411 159.353 25.7186 160.218 25.7186C160.879 25.7186 161.422 25.8311 161.847 26.056C162.277 26.2761 162.62 26.5426 162.874 26.8556C163.128 27.1637 163.322 27.4547 163.454 27.7286H163.6V25.8653H166.219V37.3166C166.219 38.28 165.989 39.0772 165.53 39.7081C165.07 40.3389 164.441 40.8109 163.644 41.1239C162.847 41.4369 161.942 41.5934 160.93 41.5934ZM160.952 34.8884C161.514 34.8884 161.994 34.7515 162.39 34.4776C162.786 34.2037 163.087 33.81 163.292 33.2965C163.498 32.783 163.6 32.1668 163.6 31.4479C163.6 30.7388 163.498 30.1177 163.292 29.5846C163.092 29.0515 162.793 28.6383 162.397 28.3448C162.006 28.0465 161.524 27.8973 160.952 27.8973C160.36 27.8973 159.866 28.0514 159.47 28.3595C159.074 28.6676 158.776 29.0906 158.575 29.6286C158.375 30.1617 158.274 30.7681 158.274 31.4479C158.274 32.1375 158.375 32.7414 158.575 33.2598C158.781 33.7734 159.081 34.1744 159.478 34.4629C159.879 34.7466 160.37 34.8884 160.952 34.8884ZM171.183 30.5309V37.1332H168.528V25.8653H171.066V27.78H171.198C171.457 27.1491 171.87 26.6478 172.438 26.2761C173.01 25.9044 173.717 25.7186 174.558 25.7186C175.335 25.7186 176.013 25.8849 176.59 26.2174C177.172 26.55 177.622 27.0317 177.94 27.6626C178.262 28.2935 178.421 29.0588 178.416 29.9587V37.1332H175.761V30.3695C175.761 29.6164 175.565 29.0271 175.174 28.6016C174.788 28.1761 174.252 27.9634 173.567 27.9634C173.103 27.9634 172.69 28.0661 172.328 28.2715C171.971 28.472 171.689 28.763 171.484 29.1444C171.283 29.5259 171.183 29.9881 171.183 30.5309Z" fill="white"></path>
</g>
<defs>
<clipPath id="clip0_7351_23555">
<rect width="180" height="56" fill="white"></rect>
</clipPath>
<clipPath id="clip1_7351_23555">
<rect y="14.6332" width="30" height="30" rx="7.85529" fill="white"></rect>
</clipPath>
</defs>
</svg>