<svg width="134" height="64" viewBox="0 0 134 64" fill="none" xmlns="http://www.w3.org/2000/svg">
<path d="M33.4609 19V45.4658H7.14844V19H33.4609ZM54.1797 36.2324C55.52 36.2325 56.7114 36.8315 57.4062 38.0137L55.2881 39.1621C55.0564 38.7295 54.7257 38.4298 54.1797 38.4297C53.7496 38.4297 53.4845 38.5958 53.4844 38.8955C53.4844 39.844 57.5557 39.2122 57.5557 42.291C57.5555 44.2052 55.9001 45.0205 54.1133 45.0205C52.4586 45.0205 51.2009 44.3884 50.5557 43.04L52.707 41.8086C52.9221 42.4406 53.3852 42.79 54.1133 42.79C54.7088 42.79 55.0068 42.6071 55.0068 42.2744C55.0068 41.3591 50.9365 41.8412 50.9365 38.9619C50.9366 37.1476 52.4589 36.2324 54.1797 36.2324ZM61.4268 36.2324C62.7671 36.2324 63.9584 36.8315 64.6533 38.0137L62.5352 39.1621C62.3034 38.7295 61.9726 38.4297 61.4268 38.4297C60.9967 38.4297 60.7316 38.5958 60.7314 38.8955C60.7314 39.844 64.8027 39.2122 64.8027 42.291C64.8026 44.2053 63.1472 45.0205 61.3604 45.0205C59.7057 45.0204 58.4479 44.3884 57.8027 43.04L59.9541 41.8086C60.1692 42.4407 60.6323 42.7899 61.3604 42.79C61.9559 42.79 62.2539 42.6071 62.2539 42.2744C62.2539 41.3591 58.1836 41.8412 58.1836 38.9619C58.1837 37.1477 59.7059 36.2324 61.4268 36.2324ZM69.9316 36.2324C72.3638 36.2326 74.3162 38.1465 74.3164 40.626C74.3164 43.106 72.3639 45.0203 69.9316 45.0205C67.4992 45.0205 65.5459 43.1061 65.5459 40.626C65.5461 38.1463 67.4993 36.2324 69.9316 36.2324ZM79.6943 36.2324C81.2993 36.2326 82.7221 37.0819 83.4336 38.3633L81.2656 39.6279C80.9842 39.0455 80.3892 38.6964 79.6611 38.6963C78.5856 38.6963 77.7912 39.4778 77.791 40.626C77.791 41.7747 78.5855 42.5576 79.6611 42.5576C80.3892 42.5575 81.0009 42.2075 81.2656 41.625L83.4336 42.873C82.7221 44.1712 81.316 45.0204 79.6943 45.0205C77.1792 45.0205 75.3086 43.1061 75.3086 40.626C75.3088 38.1463 77.1793 36.2324 79.6943 36.2324ZM92.2695 36.2324C93.3784 36.2325 94.1892 36.6156 94.7354 37.248V36.4658H97.2168V44.7871H94.7354V44.0049C94.1892 44.6374 93.3784 45.0204 92.2695 45.0205C90.1018 45.0205 88.3145 43.1061 88.3145 40.626C88.3147 38.1463 90.102 36.2324 92.2695 36.2324ZM113.564 36.2324C115.997 36.2325 117.949 38.1464 117.949 40.626C117.949 43.1061 115.997 45.0204 113.564 45.0205C111.132 45.0205 109.179 43.1061 109.179 40.626C109.179 38.1463 111.132 36.2324 113.564 36.2324ZM102.18 36.4658H103.885V38.8623H102.18V41.8086C102.18 42.524 102.793 42.5908 103.885 42.5244V44.7871C100.642 45.1201 99.6983 44.1386 99.6982 41.8086V38.8623H98.374V36.4658H99.6982V34.8848L102.18 34.1357V36.4658ZM50.3086 44.7881H47.4121L46.833 42.957H42.5312L41.9521 44.7881H39.0557L42.9941 33.1367H46.3701L50.3086 44.7881ZM86.9082 44.7871H84.4258V36.4658H86.9082V44.7871ZM107.772 44.7871H105.29V36.4658H107.772V44.7871ZM124.204 36.2324C125.875 36.2325 127.299 37.4308 127.299 39.6777V44.7871H124.816V40.0439C124.816 39.0123 124.17 38.5293 123.376 38.5293C122.466 38.5295 121.838 39.0628 121.838 40.2441V44.7871H119.355V36.4658H121.838V37.248C122.285 36.6323 123.112 36.2324 124.204 36.2324ZM92.7656 38.5957C91.6241 38.5957 90.7971 39.3783 90.7969 40.626C90.7969 41.8742 91.624 42.6572 92.7656 42.6572C93.9073 42.6572 94.7354 41.8743 94.7354 40.626C94.7352 39.3782 93.9072 38.5957 92.7656 38.5957ZM20.4639 31.9736V34.9854C20.4639 39.2094 23.8806 42.6462 28.0801 42.6465H31.0752V37.3564H28.0801C26.7807 37.3562 25.7237 36.2924 25.7236 34.9854V31.9736H20.4639ZM69.9316 38.6621C68.8561 38.6621 68.0285 39.4446 68.0283 40.626C68.0283 41.8079 68.856 42.5908 69.9316 42.5908C71.0071 42.5906 71.834 41.8077 71.834 40.626C71.8338 39.4448 71.007 38.6623 69.9316 38.6621ZM113.564 38.6621C112.489 38.6621 111.661 39.4446 111.661 40.626C111.661 41.8079 112.489 42.5908 113.564 42.5908C114.64 42.5907 115.467 41.8078 115.467 40.626C115.467 39.4447 114.64 38.6622 113.564 38.6621ZM43.3252 40.46H46.0391L44.6826 36.1826L43.3252 40.46ZM85.667 32.7373C86.4779 32.7373 87.1562 33.42 87.1562 34.2354C87.1561 35.0508 86.4778 35.7334 85.667 35.7334C84.8563 35.7333 84.1779 35.0508 84.1777 34.2354C84.1777 33.4201 84.8561 32.7374 85.667 32.7373ZM106.531 32.7373C107.342 32.7373 108.021 33.42 108.021 34.2354C108.02 35.0509 107.342 35.7334 106.531 35.7334C105.721 35.7333 105.042 35.0508 105.042 34.2354C105.042 33.4201 105.72 32.7374 106.531 32.7373ZM25.7383 32.0322H31.0059V26.7344H25.7383V32.0322ZM42.457 31.4434H39.7451V19.6758H42.457V31.4434ZM53.3057 22.2646H50.1768V31.4434H47.3945V22.2646H44.2656V19.6758H53.3057V22.2646ZM60.3184 27.0557C60.3184 27.9377 60.7322 28.6875 62.1387 28.6875C63.5454 28.6875 63.959 27.9377 63.959 27.0557V19.3994H66.6064V27.2891C66.6064 29.7856 64.6871 31.2832 62.1387 31.2832C59.5905 31.2832 57.6709 29.7856 57.6709 27.2891V19.3994H60.3184V27.0557ZM86.6934 22.4951C87.8022 22.4952 88.6131 22.8783 89.1592 23.5107V22.7285H91.6406V31.0508H89.1592V30.2686C88.6131 30.901 87.8022 31.2831 86.6934 31.2832C84.5258 31.2832 82.7385 29.3696 82.7383 26.8896C82.7383 24.4098 84.5257 22.4951 86.6934 22.4951ZM111.396 22.4951C113.811 22.4951 115.599 24.3758 115.6 26.8887C115.6 27.2385 115.566 27.5724 115.5 27.8887H109.625C109.94 28.7537 110.701 29.0527 111.611 29.0527C112.289 29.0526 112.868 28.7869 113.199 28.4209L115.186 29.5693C114.375 30.7008 113.15 31.2832 111.578 31.2832C108.749 31.2832 106.994 29.3688 106.994 26.8887C106.994 24.4095 108.781 22.4953 111.396 22.4951ZM70.9082 26.374L73.3896 22.7285H76.2861L73.2734 26.8896L76.3682 31.0508H73.5557L70.9082 27.3721V31.0508H68.4258V19.3994H70.9082V26.374ZM82.2412 25.3916C81.2152 25.2254 79.7598 25.6415 79.7598 27.2891V31.0508H77.2773V22.7285H79.7598V24.21C80.0908 23.095 81.199 22.5617 82.2412 22.5615V25.3916ZM95.9424 31.0498H93.46V22.7285H95.9424V31.0498ZM102.611 22.4951C104.282 22.4952 105.706 23.6936 105.706 25.9404V31.0498H103.224V26.3066C103.224 25.275 102.577 24.792 101.783 24.792C100.873 24.7922 100.245 25.3255 100.245 26.5068V31.0498H97.7627V22.7285H100.245V23.5107C100.692 22.895 101.519 22.4951 102.611 22.4951ZM87.1895 24.8584C86.0478 24.8584 85.2207 25.6417 85.2207 26.8896C85.2209 28.1377 86.0479 28.9199 87.1895 28.9199C88.331 28.9199 89.159 28.1377 89.1592 26.8896C89.1592 25.6417 88.3312 24.8584 87.1895 24.8584ZM20.4707 21.4355V26.7344H25.7383V21.4355H20.4707ZM111.379 24.709C110.436 24.7091 109.807 25.1748 109.575 26.0234H113.134C112.869 25.0581 112.124 24.709 111.379 24.709ZM94.7012 19C95.5121 19 96.1904 19.6827 96.1904 20.498C96.1904 21.3137 95.5121 21.9961 94.7012 21.9961C93.8904 21.996 93.2119 21.3136 93.2119 20.498C93.2119 19.6828 93.8903 19.0001 94.7012 19Z" fill="white"></path>
</svg>